<svg width="1919pt" height="815pt" viewBox="0 0 1919 815" xmlns="http://www.w3.org/2000/svg"><defs><linearGradient id="a" x1="1" x2="0"><stop stop-color="var(--secondary-color)"/><stop offset="1" stop-color="var(--primary-color)"/></linearGradient></defs><path fill="url(#a)" d="M0 0h1919v188.26c-64.6 19.8-131.71 31.15-199.11 34.83-7.6.87-15.3.23-22.9 1.04-67.46 2.24-134.88-2.62-201.92-9.68-48.65-5.09-97.22-11.22-146.01-14.97-48-3.52-96.63-4.68-144.2 3.82-27 4.87-53.54 13.03-77.98 25.6-21.46 10.77-41.23 24.81-58.81 41.14-33.92 32.52-65.53 67.42-95.11 103.93-38.27 46.84-72.92 96.47-108.98 144.99-29.05 38.87-59.27 77.13-94 111.12-45.65 45.75-99.41 83.26-157.72 111.08-36.32 17.59-74.28 31.69-112.87 43.42-91.04 27.65-188.05 38.17-282.49 24.3-61.35-8.96-121.55-27.74-175.99-57.62C26.72 743.3 12.8 734.78 0 724.7V0z"/></svg>